# xmcd CD database file
#
# Track frame offsets:
#	150
#	18290
#	43525
#
# Disc length: 912 seconds
#
# Revision: 0
# Processed by: cddbd v1.5.1PL0 Copyright (c) Steve Scherf et al.
# Submitted via: CDex 1.40Release
#
DISCID=18038e03
DTITLE=我那覇　美奈 - 月の雫
DYEAR=2004
DGENRE=J-Pop
TTITLE0=月の雫
TTITLE1=ほしつぼみ
TTITLE2=青空
EXTD=YEAR: 2004
EXTT0=
EXTT1=
EXTT2=
PLAYORDER=
